<?xml version="1.0" encoding="UTF-8" standalone="no"?>
<!-- Created with Inkscape (http://www.inkscape.org/) -->

<svg
   xmlns:dc="http://purl.org/dc/elements/1.1/"
   xmlns:cc="http://creativecommons.org/ns#"
   xmlns:rdf="http://www.w3.org/1999/02/22-rdf-syntax-ns#"
   xmlns:svg="http://www.w3.org/2000/svg"
   xmlns="http://www.w3.org/2000/svg"
   xmlns:sodipodi="http://sodipodi.sourceforge.net/DTD/sodipodi-0.dtd"
   xmlns:inkscape="http://www.inkscape.org/namespaces/inkscape"
   width="86.082634mm"
   height="26.149101mm"
   viewBox="0 0 86.082634 26.149101"
   version="1.1"
   id="svg1571"
   inkscape:version="0.92.4 (5da689c313, 2019-01-14)"
   sodipodi:docname="logo_path.svg">
  <defs
     id="defs1565">
    <inkscape:path-effect
       effect="spiro"
       id="path-effect2146"
       is_visible="true" />
    <inkscape:path-effect
       effect="skeletal"
       id="path-effect2142"
       is_visible="true"
       pattern="m 119.0625,30.148815 c 29.26819,-28.9959312 94.46583,-29.1323773 123.59821,0 9.53261,9.532614 9.53261,30.910841 0,40.443456 -29.22147,29.221467 -94.89158,29.357693 -123.97619,0 -9.48838,-9.577472 -9.19949,-30.955075 0.37798,-40.443456 z"
       copytype="single_stretched"
       prop_scale="0.26458333"
       scale_y_rel="false"
       spacing="0"
       normal_offset="0"
       tang_offset="0"
       prop_units="false"
       vertical_pattern="false"
       fuse_tolerance="0" />
    <inkscape:path-effect
       effect="spiro"
       id="path-effect2134"
       is_visible="true" />
  </defs>
  <sodipodi:namedview
     id="base"
     pagecolor="#ffffff"
     bordercolor="#666666"
     borderopacity="1.0"
     inkscape:pageopacity="0.0"
     inkscape:pageshadow="2"
     inkscape:zoom="2.8"
     inkscape:cx="86.528065"
     inkscape:cy="75.536623"
     inkscape:document-units="mm"
     inkscape:current-layer="layer1"
     showgrid="false"
     inkscape:window-width="1920"
     inkscape:window-height="1017"
     inkscape:window-x="-8"
     inkscape:window-y="-8"
     inkscape:window-maximized="1"
     fit-margin-top="0"
     fit-margin-left="0"
     fit-margin-right="0"
     fit-margin-bottom="0" />
  <metadata
     id="metadata1568">
    <rdf:RDF>
      <cc:Work
         rdf:about="">
        <dc:format>image/svg+xml</dc:format>
        <dc:type
           rdf:resource="http://purl.org/dc/dcmitype/StillImage" />
        <dc:title></dc:title>
      </cc:Work>
    </rdf:RDF>
  </metadata>
  <g
     inkscape:label="Layer 1"
     inkscape:groupmode="layer"
     id="layer1"
     transform="translate(-1.5055046,0.63889429)">
    <g
       id="g2170"
       transform="matrix(0.00547297,0,0,0.00547297,73.475814,12.440755)">
      <g
         id="g2154"
         style="stroke:#000000;stroke-width:24">
        <circle
           id="circle2150"
           r="2376"
           cx="0"
           cy="0"
           style="fill:#ffffff" />
        <path
           id="path2152"
           d="m -1643,-1716 155,158 m -550,2364 c 231,231 538,195 826,202 m -524,-2040 c -491,351 -610,1064 -592,1060 m 1216,-1008 c -51,373 84,783 364,1220 m -107,-2289 c 157,-157 466,-267 873,-329 m -528,4112 c -50,132 -37,315 -8,510 m 62,-3883 c 282,32 792,74 1196,303 M 336,1308 c 310,173 649,247 1060,180 M 1056,-520 C 814,-186 522,125 184,416 m 1109,-2119 c -111,-207 -296,-375 -499,-534 m 1146,1281 c 100,3 197,44 290,141 m -438,495 c 158,297 181,718 204,1140"
           inkscape:connector-curvature="0"
           style="fill:none" />
      </g>
      <path
         id="path2156"
         d="m -1624,-1700 c 243,-153 498,-303 856,-424 141,117 253,307 372,492 -288,275 -562,544 -724,756 -274,-25 -410,-2 -740,-60 3,-244 84,-499 236,-764 z m 2904,-40 c 271,248 537,498 724,788 -55,262 -105,553 -180,704 -234,-35 -536,-125 -820,-200 -138,-357 -231,-625 -340,-924 210,-156 417,-296 616,-368 z M -1993,1293 A 2376,2376 0 0 1 -2371,-99 l 59,-7 c 54,342 124,674 311,928 -36,179 -2,323 51,458 z M -796,168 c 365,60 717,120 1060,180 106,333 120,667 156,1000 -263,218 -625,287 -944,420 -372,-240 -523,-508 -736,-768 122,-281 257,-561 464,-832 z m 3013,678 a 2376,2376 0 0 1 -925,1147 l -116,-5 c 84,-127 114,-297 118,-488 232,-111 464,-463 696,-772 86,30 159,72 227,118 z M -70,2373 a 2376,2376 0 0 1 -993,-251 c 199,74 367,143 542,83 53,75 176,134 451,168 z"
         inkscape:connector-curvature="0"
         style="fill:#000000" />
    </g>
    <g
       aria-label="Awesome"
       transform="matrix(0.26458333,0,0,0.26458333,150.15939,-50.840102)"
       style="font-style:normal;font-weight:normal;font-size:40px;line-height:1.25;font-family:sans-serif;letter-spacing:0px;word-spacing:0px;fill:#ffcc00;fill-opacity:1;stroke:#806600"
       id="flowRoot2116">
      <path
         d="m -525.3125,221.20166 4.92188,10.54687 q 0.70312,1.45833 1.17187,1.92708 0.46875,0.44271 1.43229,0.59896 1.875,0.28646 1.875,1.90104 0,1.90105 -2.29166,2.73438 -2.29167,0.83333 -7.5,0.83333 -5.88542,0 -8.72396,-0.49479 -1.30209,-0.23437 -2.08334,-0.9375 -0.7552,-0.72917 -0.7552,-1.74479 0,-0.78125 0.39062,-1.19792 0.41667,-0.44271 1.51042,-0.80729 1.22396,-0.41667 1.22396,-1.40625 0,-1.74479 -2.10938,-2.05729 -2.26562,-0.3125 -6.38021,-0.3125 -3.46354,0 -4.14062,0.41667 -0.41667,0.26041 -0.72917,0.9375 -0.3125,0.67708 -0.3125,1.30208 0,0.57292 0.20833,0.75521 0.23438,0.15625 1.45834,0.54687 1.58854,0.46875 1.58854,1.875 0,3.09896 -7.42188,3.09896 -4.21875,0 -6.19791,-0.57292 Q -560,238.59749 -560,236.74853 q 0,-0.80729 0.39063,-1.25 0.41666,-0.44271 1.45833,-0.80729 1.69271,-0.59896 2.55208,-1.66667 0.88542,-1.09375 2.5,-4.63541 l 3.67188,-8.04688 q 2.03125,-4.42708 2.70833,-6.61458 0.70313,-2.21354 0.72917,-4.32292 0.026,-2.23958 0.26041,-3.09896 0.26042,-0.88542 1.1198,-1.71875 1.79687,-1.82292 4.58333,-1.82292 2.63021,0 5.02604,2.0573 3.33333,2.8125 9.6875,16.38021 z m -18.125,3.28125 h 5.10417 q 1.40625,0 1.40625,-0.625 0,-0.85938 -1.95313,-4.21875 -0.88541,-1.53646 -1.35416,-2.0573 -0.46875,-0.52083 -0.98959,-0.52083 -0.9375,0 -1.5625,1.74479 -0.10416,0.23438 -0.75521,1.84896 -1.09375,2.65625 -1.09375,3.17708 0,0.65105 1.19792,0.65105 z"
         style="font-style:normal;font-variant:normal;font-weight:normal;font-stretch:normal;font-size:53.33333588px;font-family:'Cooper Black';-inkscape-font-specification:'Cooper Black, Normal';font-variant-ligatures:normal;font-variant-caps:normal;font-variant-numeric:normal;font-feature-settings:normal;text-align:start;writing-mode:lr-tb;text-anchor:start;fill:#ffcc00;stroke:#806600"
         id="path2174" />
      <path
         d="m -488.38541,234.69124 -2.68229,-4.29688 q -0.9375,-1.45833 -1.22396,-1.74479 -0.26042,-0.28646 -0.70313,-0.28646 -0.9375,0 -1.92708,1.71875 l -4.34896,7.5 q -1.25,2.16146 -2.8125,2.16146 -0.96354,0 -1.77083,-0.65104 -0.8073,-0.67708 -1.7448,-2.26562 l -7.8125,-12.9948 q -1.95312,-3.15104 -3.04687,-4.11458 -0.52083,-0.41667 -1.90104,-0.80729 -0.57292,-0.18229 -0.96354,-0.70313 -0.36459,-0.54687 -0.36459,-1.19791 0,-2.00521 3.09896,-2.8125 3.125,-0.78125 6.82292,-0.78125 8.30729,0 8.30729,3.09896 0,0.57291 -0.80729,1.74479 -0.15625,0.23437 -0.15625,0.49479 0,0.57292 1.22396,2.83854 1.35416,2.57813 2.34375,2.57813 0.57291,0 1.45833,-1.30209 0.88542,-1.30208 0.88542,-2.10937 0,-0.80729 -0.39063,-1.27604 -0.39062,-0.4948 -1.84896,-1.53646 -0.88541,-0.625 -0.88541,-1.48438 0,-2.03125 4.16666,-2.65625 2.52605,-0.39062 5.9375,-0.39062 3.9323,0 5.67709,0.67708 1.74479,0.65104 1.74479,2.13542 0,0.59896 -0.20833,0.96354 -0.20834,0.36458 -1.1198,1.30208 -0.28645,0.3125 -0.28645,0.80729 0,0.70313 1.19791,2.96875 1.04167,1.97917 1.90104,1.97917 0.9375,0 2.3698,-2.52604 1.04166,-1.90104 1.04166,-2.52604 0,-0.49479 -0.83333,-1.53646 -0.59896,-0.72917 -0.59896,-1.58854 0,-1.35417 1.22396,-1.875 1.71875,-0.75521 5,-0.75521 2.21354,0 3.93229,0.33854 0.98959,0.20833 1.61459,0.85938 0.625,0.625 0.625,1.45833 0,0.83333 -0.72917,1.40625 -0.13021,0.13021 -1.82292,0.72917 -0.96354,0.36458 -1.58854,1.04166 -0.625,0.67709 -1.51042,2.42188 l -6.51041,12.60416 q -2.86459,5.52084 -5.05209,5.52084 -0.9375,0 -2.08333,-1.17188 -1.11979,-1.19791 -2.83854,-3.95833 z"
         style="font-style:normal;font-variant:normal;font-weight:normal;font-stretch:normal;font-size:53.33333588px;font-family:'Cooper Black';-inkscape-font-specification:'Cooper Black, Normal';font-variant-ligatures:normal;font-variant-caps:normal;font-variant-numeric:normal;font-feature-settings:normal;text-align:start;writing-mode:lr-tb;text-anchor:start;fill:#ffcc00;stroke:#806600"
         id="path2176" />
      <path
         d="m -443.09895,227.52978 h -12.23959 q -0.80729,0 -0.80729,0.70313 0,1.6927 1.82292,3.20312 1.84895,1.48438 3.95833,1.48438 1.25,0 2.76042,-0.46875 1.53646,-0.4948 2.52604,-1.19792 0.88542,-0.625 1.40625,-0.625 0.67708,0 1.32812,0.83333 0.65105,0.83334 0.65105,1.71875 0,1.875 -2.34375,3.61979 -4.14063,3.09896 -9.5573,3.09896 -5.46875,0 -9.16666,-3.17708 -1.79688,-1.5625 -2.96875,-3.77604 -1.53646,-2.94271 -1.53646,-6.19792 0,-4.375 2.65625,-7.86458 2.29166,-3.02084 5.83333,-4.50521 2.65625,-1.11979 5.75521,-1.11979 4.94792,0 8.41146,2.8125 1.74479,1.40625 2.8125,3.33333 1.22396,2.1875 1.22396,4.27083 0,1.69271 -0.70313,2.78646 -0.70312,1.06771 -1.82291,1.06771 z m -11.56251,-4.86979 h 2.63021 q 1.66667,0 1.66667,-1.53646 0,-1.40625 -0.80729,-2.29167 -0.80729,-0.88541 -2.10938,-0.88541 -1.45833,0 -2.29166,1.14583 -0.78125,1.06771 -0.78125,2.16146 0,0.78125 0.36458,1.09375 0.39062,0.3125 1.32812,0.3125 z"
         style="font-style:normal;font-variant:normal;font-weight:normal;font-stretch:normal;font-size:53.33333588px;font-family:'Cooper Black';-inkscape-font-specification:'Cooper Black, Normal';font-variant-ligatures:normal;font-variant-caps:normal;font-variant-numeric:normal;font-feature-settings:normal;text-align:start;writing-mode:lr-tb;text-anchor:start;fill:#ffcc00;stroke:#806600"
         id="path2178" />
      <path
         d="m -428.38541,213.25895 q 1.30209,0 4.2448,0.57291 0.59895,0.10417 0.98958,0.10417 0.44271,0 1.71875,-0.46875 0.59896,-0.23437 1.01562,-0.23437 1.19792,0 2.42188,1.53645 0.98958,1.22396 1.61458,2.6823 0.625,1.45833 0.625,2.52604 0,1.04166 -0.72916,1.74479 -0.72917,0.67708 -1.82292,0.67708 -0.91146,0 -1.64063,-0.44271 -0.70312,-0.4427 -2.29166,-1.95312 -1.66667,-1.61458 -2.76042,-1.61458 -0.72917,0 -1.27604,0.54687 -0.52083,0.52083 -0.52083,1.25 0,1.27604 2.44791,2.39583 4.40104,1.97917 6.74479,4.32292 1.97917,1.97917 1.97917,4.84375 0,3.61979 -3.17708,6.04167 -2.73438,2.10937 -6.69271,2.10937 -1.01563,0 -3.69792,-0.33854 -2.52604,-0.28646 -2.83854,-0.28646 -0.33854,0 -0.78125,0.0781 -0.75521,0.10416 -1.09375,0.10416 -1.22396,0 -1.92708,-0.625 -1.06771,-0.96354 -1.97917,-3.02083 -0.91146,-2.08333 -0.91146,-3.56771 0,-2.39583 1.875,-2.39583 0.72917,0 1.32813,0.49479 0.625,0.46875 2.57812,2.55208 1.06771,1.14584 1.77084,1.58855 0.70312,0.41666 1.51041,0.41666 0.85938,0 1.38021,-0.44271 0.52083,-0.46875 0.52083,-1.22395 0,-1.17188 -2.0052,-2.13542 -4.19271,-2.05729 -6.06771,-4.24479 -1.84896,-2.1875 -1.84896,-5.05209 0,-3.09895 1.90104,-5.33854 2.70833,-3.20312 7.39583,-3.20312 z"
         style="font-style:normal;font-variant:normal;font-weight:normal;font-stretch:normal;font-size:53.33333588px;font-family:'Cooper Black';-inkscape-font-specification:'Cooper Black, Normal';font-variant-ligatures:normal;font-variant-caps:normal;font-variant-numeric:normal;font-feature-settings:normal;text-align:start;writing-mode:lr-tb;text-anchor:start;fill:#ffcc00;stroke:#806600"
         id="path2180" />
      <path
         d="m -397.26562,213.23291 q 4.76562,0 8.35937,2.47395 2.57813,1.77084 4.14063,4.60938 1.61458,2.96875 1.61458,6.19792 0,5.65104 -5.18229,9.60937 -4.94792,3.77604 -11.32813,3.77604 -6.22396,0 -10.07812,-3.54166 -3.75,-3.4375 -3.75,-8.95834 0,-6.14583 4.58333,-10.05208 4.79167,-4.11458 11.64063,-4.11458 z m -2.08334,6.01562 q -1.14583,0 -1.84896,0.85938 -0.67708,0.83333 -0.67708,2.23958 0,1.5625 0.57292,4.27083 0.59896,2.68229 1.40625,4.76563 0.80729,2.13541 2.63021,2.13541 2.3177,0 2.3177,-2.9427 0,-2.1875 -0.59895,-4.97396 -0.57292,-2.78646 -1.40625,-4.53125 -0.85938,-1.77084 -2.39584,-1.82292 z"
         style="font-style:normal;font-variant:normal;font-weight:normal;font-stretch:normal;font-size:53.33333588px;font-family:'Cooper Black';-inkscape-font-specification:'Cooper Black, Normal';font-variant-ligatures:normal;font-variant-caps:normal;font-variant-numeric:normal;font-feature-settings:normal;text-align:start;writing-mode:lr-tb;text-anchor:start;fill:#ffcc00;stroke:#806600"
         id="path2182" />
      <path
         d="m -368.67186,213.44124 q 1.48437,0 1.48437,2.10937 0,0.026 0,0.44271 -0.026,0.41667 -0.026,0.67709 0,1.40625 0.83333,1.40625 0.44271,0 1.38021,-1.1198 1.40625,-1.61458 3.54167,-2.55208 2.13541,-0.96354 4.375,-0.96354 4.34896,0 6.04166,3.17708 0.65105,1.17188 1.06771,1.17188 0.28646,0 1.35417,-1.04167 3.38542,-3.30729 7.68229,-3.30729 3.35938,0 5.49479,1.84896 2.23959,1.92708 2.23959,5.78125 0,0.83333 -0.0521,2.8125 -0.0521,0.67708 -0.0521,4.08854 0,2.1875 -0.026,3.07292 -0.026,0.54687 -0.026,0.78125 0,1.66666 1.04166,2.91666 0.625,0.75521 0.75521,1.01563 0.15625,0.23437 0.15625,0.65104 0,3.33333 -7.83854,3.33333 -3.46354,0 -5.59896,-0.83333 -2.10937,-0.83333 -2.10937,-2.1875 0,-0.52083 0.13021,-0.78125 0.15625,-0.28646 1.01562,-1.45833 0.80729,-1.06771 0.80729,-7.10938 0,-3.51562 -0.49479,-4.89583 -0.57292,-1.64063 -2.29167,-1.64063 -0.85937,0 -1.53645,0.54688 -0.65105,0.52083 -0.85938,1.32812 -0.23437,0.9375 -0.26042,5 0.0781,4.375 0.26042,5.3125 0.20833,0.9375 1.32813,2.60417 0.26041,0.39062 0.26041,0.98958 0,3.09896 -8.09896,3.09896 -4.86979,0 -6.5625,-0.72917 -1.35416,-0.57291 -1.35416,-2.03125 0,-0.65104 0.15625,-0.91145 0.18229,-0.26042 1.17187,-1.19792 0.57292,-0.54688 0.72917,-1.01563 0.18229,-0.49479 0.26041,-1.77083 0.1823,-2.86458 0.1823,-5.78125 0,-5.10417 -2.60417,-5.10417 -1.95313,0 -2.31771,2.1875 -0.3125,2.0573 -0.3125,5.88542 0,2.86458 0.10417,3.75 0.13021,0.88542 0.65104,1.84896 0.625,1.11979 0.625,1.82292 0,1.6927 -2.36979,2.34375 -2.57813,0.70312 -5.67709,0.70312 -4.01041,0 -5.88541,-0.625 -1.875,-0.65104 -1.875,-2.03125 0,-0.52083 0.23437,-0.88542 0.26042,-0.36458 1.14584,-1.14583 1.17187,-1.06771 1.35416,-2.94271 0.28646,-3.22916 0.28646,-6.69271 0,-2.47395 -0.26042,-3.4375 -0.23437,-0.98958 -1.04166,-1.58854 -0.78125,-0.59896 -1.01563,-0.91146 -0.20833,-0.3125 -0.20833,-0.85937 0,-1.74479 2.73437,-2.76042 6.58855,-2.36979 9.8698,-2.39583 z"
         style="font-style:normal;font-variant:normal;font-weight:normal;font-stretch:normal;font-size:53.33333588px;font-family:'Cooper Black';-inkscape-font-specification:'Cooper Black, Normal';font-variant-ligatures:normal;font-variant-caps:normal;font-variant-numeric:normal;font-feature-settings:normal;text-align:start;writing-mode:lr-tb;text-anchor:start;fill:#ffcc00;stroke:#806600"
         id="path2184" />
      <path
         d="m -305.78123,227.52978 h -12.23958 q -0.80729,0 -0.80729,0.70313 0,1.6927 1.82291,3.20312 1.84896,1.48438 3.95834,1.48438 1.25,0 2.76041,-0.46875 1.53646,-0.4948 2.52604,-1.19792 0.88542,-0.625 1.40625,-0.625 0.67709,0 1.32813,0.83333 0.65104,0.83334 0.65104,1.71875 0,1.875 -2.34375,3.61979 -4.14062,3.09896 -9.55729,3.09896 -5.46875,0 -9.16667,-3.17708 -1.79687,-1.5625 -2.96875,-3.77604 -1.53646,-2.94271 -1.53646,-6.19792 0,-4.375 2.65625,-7.86458 2.29167,-3.02084 5.83334,-4.50521 2.65625,-1.11979 5.75521,-1.11979 4.94791,0 8.41145,2.8125 1.7448,1.40625 2.8125,3.33333 1.22396,2.1875 1.22396,4.27083 0,1.69271 -0.70312,2.78646 -0.70313,1.06771 -1.82292,1.06771 z m -11.5625,-4.86979 h 2.63021 q 1.66667,0 1.66667,-1.53646 0,-1.40625 -0.8073,-2.29167 -0.80729,-0.88541 -2.10937,-0.88541 -1.45833,0 -2.29167,1.14583 -0.78125,1.06771 -0.78125,2.16146 0,0.78125 0.36459,1.09375 0.39062,0.3125 1.32812,0.3125 z"
         style="font-style:normal;font-variant:normal;font-weight:normal;font-stretch:normal;font-size:53.33333588px;font-family:'Cooper Black';-inkscape-font-specification:'Cooper Black, Normal';font-variant-ligatures:normal;font-variant-caps:normal;font-variant-numeric:normal;font-feature-settings:normal;text-align:start;writing-mode:lr-tb;text-anchor:start;fill:#ffcc00;stroke:#806600"
         id="path2186" />
    </g>
    <g
       aria-label="Soccer"
       transform="matrix(0.26458333,0,0,0.26458333,154.97024,-56.853666)"
       style="font-style:normal;font-variant:normal;font-weight:normal;font-stretch:normal;font-size:53.33333588px;line-height:1.25;font-family:'Cooper Black';-inkscape-font-specification:'Cooper Black, Normal';font-variant-ligatures:normal;font-variant-caps:normal;font-variant-numeric:normal;font-feature-settings:normal;text-align:start;letter-spacing:0px;word-spacing:0px;writing-mode:lr-tb;text-anchor:start;fill:#00ffff;fill-opacity:1;stroke:#008080"
       id="flowRoot2124">
      <path
         d="m -417.5944,272.68798 q 2.68229,0 7.03125,1.32813 0.52083,0.15625 0.83333,0.15625 0.26042,0 1.5625,-0.46875 0.41667,-0.15625 0.88542,-0.15625 1.74479,0 3.67188,2.76041 1.95312,2.76042 1.95312,5.26042 0,1.45834 -0.88542,2.47396 -0.85937,0.98958 -2.10937,0.98958 -1.04167,0 -1.69271,-0.41666 -0.65104,-0.41667 -2.86458,-2.47396 -3.125,-2.91667 -6.14584,-2.91667 -1.45833,0 -2.34375,0.70313 -0.85937,0.70312 -0.85937,1.84895 0,2.26563 3.98437,3.41146 5.39063,1.58855 6.90105,2.31771 6.64062,3.22917 6.64062,9.50521 0,5.54688 -4.53125,9.0625 -4.63542,3.59375 -12.10938,3.59375 -3.33333,0 -7.03125,-0.78125 -3.69791,-0.80729 -5.33854,-1.875 -1.25,-0.83333 -2.26562,-3.61979 -0.98959,-2.8125 -0.98959,-5.46875 0,-1.27604 0.52084,-1.92708 0.65104,-0.83334 1.64062,-0.83334 0.98959,0 1.90104,1.01563 0.54688,0.57291 2.57813,3.67187 0.96354,1.45834 3.04687,2.42188 2.10938,0.96354 4.34896,0.96354 1.92709,0 3.125,-0.70313 1.19792,-0.72916 1.19792,-1.84895 0,-1.04167 -0.9375,-1.79688 -0.9375,-0.75521 -3.04688,-1.40625 -3.72395,-1.17187 -5.67708,-2.13542 -1.95312,-0.98958 -3.64583,-2.47395 -4.11459,-3.64584 -4.11459,-8.28125 0,-2.29167 1.06771,-4.45313 1.06771,-2.1875 3.02084,-3.77604 4.375,-3.67188 10.67708,-3.67188 z"
         style=""
         id="path2189" />
      <path
         d="m -382.88086,283.00048 q 4.76563,0 8.35938,2.47396 2.57812,1.77084 4.14062,4.60938 1.61459,2.96875 1.61459,6.19791 0,5.65105 -5.1823,9.60938 -4.94791,3.77604 -11.32812,3.77604 -6.22396,0 -10.07813,-3.54167 -3.75,-3.4375 -3.75,-8.95833 0,-6.14583 4.58334,-10.05208 4.79166,-4.11459 11.64062,-4.11459 z m -2.08333,6.01563 q -1.14584,0 -1.84896,0.85937 -0.67708,0.83334 -0.67708,2.23959 0,1.5625 0.57291,4.27083 0.59896,2.68229 1.40625,4.76563 0.80729,2.13541 2.63021,2.13541 2.31771,0 2.31771,-2.94271 0,-2.1875 -0.59896,-4.97395 -0.57292,-2.78646 -1.40625,-4.53125 -0.85937,-1.77084 -2.39583,-1.82292 z"
         style=""
         id="path2191" />
      <path
         d="m -352.07356,283.02653 q 4.63541,0 8.17708,2.3177 3.35937,2.21355 3.35937,5.4948 0,2.26562 -1.5625,3.67187 -1.45833,1.32813 -3.51562,1.32813 -2.16146,0 -3.25521,-1.5625 -0.33854,-0.4948 -0.98958,-2.52605 -0.70313,-2.1875 -2.68229,-2.1875 -1.4323,0 -2.42188,1.25 -0.96354,1.25 -0.96354,3.07292 0,3.125 2.23958,5.54688 1.82292,1.95312 4.58334,1.95312 1.30208,0 2.1875,-0.20833 0.88541,-0.23438 2.3177,-0.91146 0.36459,-0.18229 0.8073,-0.18229 0.88541,0 1.5625,0.83333 0.67708,0.83333 0.67708,1.95313 0,1.17187 -0.96354,2.47395 -0.96354,1.27605 -2.52604,2.23959 -3.38542,2.08333 -7.9948,2.08333 -5.36458,0 -9.14062,-3.125 -4.84375,-3.95833 -4.84375,-10.07812 0,-5.88542 4.50521,-9.73959 4.29687,-3.69791 10.44271,-3.69791 z"
         style=""
         id="path2193" />
      <path
         d="m -323.94856,283.02653 q 4.63541,0 8.17708,2.3177 3.35937,2.21355 3.35937,5.4948 0,2.26562 -1.5625,3.67187 -1.45833,1.32813 -3.51562,1.32813 -2.16146,0 -3.25521,-1.5625 -0.33854,-0.4948 -0.98958,-2.52605 -0.70313,-2.1875 -2.68229,-2.1875 -1.4323,0 -2.42188,1.25 -0.96354,1.25 -0.96354,3.07292 0,3.125 2.23958,5.54688 1.82292,1.95312 4.58334,1.95312 1.30208,0 2.1875,-0.20833 0.88541,-0.23438 2.3177,-0.91146 0.36459,-0.18229 0.8073,-0.18229 0.88541,0 1.5625,0.83333 0.67708,0.83333 0.67708,1.95313 0,1.17187 -0.96354,2.47395 -0.96354,1.27605 -2.52604,2.23959 -3.38542,2.08333 -7.9948,2.08333 -5.36458,0 -9.14062,-3.125 -4.84375,-3.95833 -4.84375,-10.07812 0,-5.88542 4.50521,-9.73959 4.29687,-3.69791 10.44271,-3.69791 z"
         style=""
         id="path2195" />
      <path
         d="m -286.60481,297.29736 h -12.23958 q -0.80729,0 -0.80729,0.70312 0,1.69271 1.82291,3.20313 1.84896,1.48437 3.95834,1.48437 1.25,0 2.76042,-0.46875 1.53645,-0.49479 2.52604,-1.19791 0.88541,-0.625 1.40625,-0.625 0.67708,0 1.32812,0.83333 0.65104,0.83333 0.65104,1.71875 0,1.875 -2.34375,3.61979 -4.14062,3.09896 -9.55729,3.09896 -5.46875,0 -9.16667,-3.17708 -1.79687,-1.5625 -2.96875,-3.77604 -1.53645,-2.94271 -1.53645,-6.19792 0,-4.375 2.65625,-7.86458 2.29166,-3.02084 5.83333,-4.50521 2.65625,-1.11979 5.75521,-1.11979 4.94792,0 8.41146,2.8125 1.74479,1.40625 2.8125,3.33333 1.22396,2.1875 1.22396,4.27083 0,1.69271 -0.70313,2.78646 -0.70312,1.06771 -1.82292,1.06771 z m -11.5625,-4.86979 h 2.63021 q 1.66667,0 1.66667,-1.53646 0,-1.40625 -0.80729,-2.29167 -0.8073,-0.88541 -2.10938,-0.88541 -1.45833,0 -2.29167,1.14583 -0.78125,1.06771 -0.78125,2.16146 0,0.78125 0.36459,1.09375 0.39062,0.3125 1.32812,0.3125 z"
         style=""
         id="path2197" />
      <path
         d="m -270.17252,283.18278 q 1.38021,0 1.66667,0.39062 0.3125,0.39063 0.54687,2.5 0.13021,1.14583 0.80729,1.14583 0.52084,0 0.98959,-0.7552 2.08333,-3.25521 5.44271,-3.25521 2.36979,0 3.8802,1.53646 0.72917,0.7552 1.19792,1.95312 0.46875,1.17188 0.46875,2.26563 0,1.22395 -0.57292,2.52604 -0.57291,1.27604 -1.48437,2.10937 -1.66667,1.58854 -4.08854,1.58854 -1.32813,0 -2.23959,-0.46875 -0.88541,-0.46875 -2.34375,-1.90104 -0.54687,-0.54687 -1.01562,-0.54687 -0.72917,0 -0.96354,0.83333 -0.20834,0.80729 -0.20834,3.4375 0,3.93229 0.28646,5.36458 0.18229,0.78125 0.49479,1.09375 0.33854,0.28646 1.40625,0.59896 2.34375,0.70313 2.34375,2.44792 0,1.06771 -0.75521,1.875 -0.7552,0.78125 -2.0052,1.04167 -2.5,0.52083 -7.34375,0.52083 -4.60938,0 -7.00521,-0.80729 -2.13542,-0.72917 -2.13542,-2.52604 0,-1.35417 1.5625,-2.42188 0.75521,-0.49479 1.04167,-0.88542 0.28646,-0.41666 0.39062,-1.11979 0.41667,-2.36979 0.41667,-8.77604 0,-1.17187 -0.26042,-1.66667 -0.26041,-0.52083 -1.04166,-0.83333 -1.84896,-0.72917 -1.84896,-2.10937 0,-1.25 1.27604,-2.13542 1.27604,-0.91146 4.27083,-1.79688 4.01042,-1.19791 6.82292,-1.22395 z"
         style=""
         id="path2199" />
    </g>
    <path
       style="fill:#ffff00;stroke:#ffcc00;stroke-width:0.86500001;stroke-linecap:butt;stroke-linejoin:round;stroke-miterlimit:4;stroke-dasharray:none;stroke-opacity:1"
       d="M 1.9319312,13.360214 H 69.3866 Z"
       id="path2172"
       inkscape:connector-curvature="0" />
  </g>
</svg>
