<?xml version="1.0" encoding="UTF-8" standalone="no"?>
<!-- Created with Inkscape (http://www.inkscape.org/) -->

<svg
   xmlns:dc="http://purl.org/dc/elements/1.1/"
   xmlns:cc="http://creativecommons.org/ns#"
   xmlns:rdf="http://www.w3.org/1999/02/22-rdf-syntax-ns#"
   xmlns:svg="http://www.w3.org/2000/svg"
   xmlns="http://www.w3.org/2000/svg"
   xmlns:sodipodi="http://sodipodi.sourceforge.net/DTD/sodipodi-0.dtd"
   xmlns:inkscape="http://www.inkscape.org/namespaces/inkscape"
   width="313.96579mm"
   height="313.96579mm"
   viewBox="0 0 313.96578 313.96578"
   version="1.1"
   id="svg6113"
   sodipodi:docname="flame.svg"
   inkscape:version="0.92.4 (5da689c313, 2019-01-14)">
  <defs
     id="defs6107">
    <inkscape:path-effect
       effect="skeletal"
       id="path-effect6274"
       is_visible="true"
       pattern="m 134.75949,56.724671 c 0,0 -3.73611,2.47617 -8.8844,8.03831 -5.10455,5.5149 -11.5343,14.35721 -14.9991,26.28673 0,0 0,1e-5 0,1e-5 -3.42318,11.750029 -3.70459,26.099119 1.40223,39.739239 5.14768,14.3051 15.74917,26.10598 26.84078,39.77264 2.69753,3.20014 5.3785,6.48369 7.96626,9.90434 7.99823,10.57257 15.17454,22.55672 18.616,36.38921 5.2062,22.24781 -1.84718,43.68129 -13.58998,57.67831 -11.45304,13.58567 -25.90399,19.22479 -35.66004,21.2788 -9.99248,2.10379 -15.90228,1.18772 -15.90228,1.18772 0,0 5.99331,-0.2906 15.09949,-3.88107 8.99096,-3.54504 21.13511,-10.84584 29.43222,-23.81642 8.50466,-13.21428 12.10419,-31.73552 6.84557,-48.77762 -3.14296,-10.88539 -9.84927,-20.69201 -17.3477,-30.59204 -2.43196,-3.21088 -4.92604,-6.403 -7.46165,-9.69305 -10.91636,-13.62545 -21.65144,-28.18772 -26.53727,-45.77032 -4.550895,-17.05555 -1.957828,-33.45676 3.6474,-45.901399 0,0 0,-1e-5 0,-1e-5 5.67909,-12.58379 14.0843,-20.7631 20.18377,-25.41965 6.21194,-4.74241 10.3487,-6.42373 10.3487,-6.42373 z"
       copytype="single_stretched"
       prop_scale="0.26458333"
       scale_y_rel="false"
       spacing="0"
       normal_offset="0"
       tang_offset="0"
       prop_units="false"
       vertical_pattern="false"
       fuse_tolerance="0" />
    <inkscape:path-effect
       effect="spiro"
       id="path-effect6262"
       is_visible="true" />
    <inkscape:path-effect
       effect="skeletal"
       id="path-effect6237"
       is_visible="true"
       pattern="m 7.7042167,37.484424 c 0,0 30.2323323,-29.4221969 57.1936993,-29.4221969 26.961367,0 57.193704,29.4221969 57.193704,29.4221969 0,0 -30.232345,29.422186 -57.193712,29.422186 -26.961367,0 -57.1936913,-29.422186 -57.1936913,-29.422186 z"
       copytype="single_stretched"
       prop_scale="0.26458333"
       scale_y_rel="false"
       spacing="0"
       normal_offset="0"
       tang_offset="0"
       prop_units="false"
       vertical_pattern="false"
       fuse_tolerance="0" />
    <inkscape:path-effect
       effect="spiro"
       id="path-effect6229"
       is_visible="true" />
    <inkscape:path-effect
       effect="skeletal"
       id="path-effect6201"
       is_visible="true"
       pattern="m 7.7042167,37.484424 c 0,0 30.2323323,-29.4221969 57.1936993,-29.4221969 26.961367,0 57.193704,29.4221969 57.193704,29.4221969 0,0 -30.232345,29.422186 -57.193712,29.422186 -26.961367,0 -57.1936913,-29.422186 -57.1936913,-29.422186 z"
       copytype="single_stretched"
       prop_scale="0.26458333"
       scale_y_rel="false"
       spacing="0"
       normal_offset="0"
       tang_offset="0"
       prop_units="false"
       vertical_pattern="false"
       fuse_tolerance="0" />
    <inkscape:path-effect
       effect="spiro"
       id="path-effect6193"
       is_visible="true" />
    <inkscape:path-effect
       effect="skeletal"
       id="path-effect6178"
       is_visible="true"
       pattern="m 7.7042167,26.709264 c 0,0 30.2323333,-18.6470199 57.1937003,-18.6470199 26.961367,0 57.193693,18.6470199 57.193693,18.6470199 0,0 -30.232334,18.647012 -57.193701,18.647012 -26.961367,0 -57.1936923,-18.647012 -57.1936923,-18.647012 z"
       copytype="single_stretched"
       prop_scale="0.26458333"
       scale_y_rel="false"
       spacing="0"
       normal_offset="0"
       tang_offset="0"
       prop_units="false"
       vertical_pattern="false"
       fuse_tolerance="0" />
    <inkscape:path-effect
       effect="spiro"
       id="path-effect6170"
       is_visible="true" />
    <inkscape:path-effect
       fuse_tolerance="0"
       vertical_pattern="false"
       prop_units="false"
       tang_offset="0"
       normal_offset="0"
       spacing="0"
       scale_y_rel="false"
       prop_scale="0.26458333"
       copytype="single_stretched"
       pattern="m 7.7042167,26.709264 c 0,0 30.2323333,-18.6470199 57.1937003,-18.6470199 26.961367,0 57.193693,18.6470199 57.193693,18.6470199 0,0 -30.232334,18.647012 -57.193701,18.647012 -26.961367,0 -57.1936923,-18.647012 -57.1936923,-18.647012 z"
       is_visible="true"
       id="path-effect6143"
       effect="skeletal" />
    <inkscape:path-effect
       is_visible="true"
       id="path-effect6141"
       effect="spiro" />
    <inkscape:path-effect
       effect="skeletal"
       id="path-effect6137"
       is_visible="true"
       pattern="m 7.7042167,26.709264 c 0,0 30.2323333,-18.6470199 57.1937003,-18.6470199 26.961367,0 57.193693,18.6470199 57.193693,18.6470199 0,0 -30.232334,18.647012 -57.193701,18.647012 -26.961367,0 -57.1936923,-18.647012 -57.1936923,-18.647012 z"
       copytype="single_stretched"
       prop_scale="0.26458333"
       scale_y_rel="false"
       spacing="0"
       normal_offset="0"
       tang_offset="0"
       prop_units="false"
       vertical_pattern="false"
       fuse_tolerance="0" />
    <inkscape:path-effect
       effect="spiro"
       id="path-effect6129"
       is_visible="true" />
    <inkscape:path-effect
       effect="spiro"
       id="path-effect6229-1"
       is_visible="true" />
    <inkscape:path-effect
       effect="skeletal"
       id="path-effect6237-4"
       is_visible="true"
       pattern="m 7.7042167,37.484424 c 0,0 30.2323323,-29.4221969 57.1936993,-29.4221969 26.961367,0 57.193704,29.4221969 57.193704,29.4221969 0,0 -30.232345,29.422186 -57.193712,29.422186 -26.961367,0 -57.1936913,-29.422186 -57.1936913,-29.422186 z"
       copytype="single_stretched"
       prop_scale="0.26458333"
       scale_y_rel="false"
       spacing="0"
       normal_offset="0"
       tang_offset="0"
       prop_units="false"
       vertical_pattern="false"
       fuse_tolerance="0" />
    <inkscape:path-effect
       effect="spiro"
       id="path-effect6229-2"
       is_visible="true" />
    <inkscape:path-effect
       effect="skeletal"
       id="path-effect6237-2"
       is_visible="true"
       pattern="m 7.7042167,37.484424 c 0,0 30.2323323,-29.4221969 57.1936993,-29.4221969 26.961367,0 57.193704,29.4221969 57.193704,29.4221969 0,0 -30.232345,29.422186 -57.193712,29.422186 -26.961367,0 -57.1936913,-29.422186 -57.1936913,-29.422186 z"
       copytype="single_stretched"
       prop_scale="0.26458333"
       scale_y_rel="false"
       spacing="0"
       normal_offset="0"
       tang_offset="0"
       prop_units="false"
       vertical_pattern="false"
       fuse_tolerance="0" />
  </defs>
  <sodipodi:namedview
     id="base"
     pagecolor="#ffffff"
     bordercolor="#666666"
     borderopacity="1.0"
     inkscape:pageopacity="0.0"
     inkscape:pageshadow="2"
     inkscape:zoom="0.49497475"
     inkscape:cx="179.06238"
     inkscape:cy="528.74206"
     inkscape:document-units="mm"
     inkscape:current-layer="layer1"
     showgrid="false"
     inkscape:window-width="1920"
     inkscape:window-height="1017"
     inkscape:window-x="-8"
     inkscape:window-y="-8"
     inkscape:window-maximized="1"
     fit-margin-top="0"
     fit-margin-left="0"
     fit-margin-right="0"
     fit-margin-bottom="0" />
  <metadata
     id="metadata6110">
    <rdf:RDF>
      <cc:Work
         rdf:about="">
        <dc:format>image/svg+xml</dc:format>
        <dc:type
           rdf:resource="http://purl.org/dc/dcmitype/StillImage" />
        <dc:title></dc:title>
      </cc:Work>
    </rdf:RDF>
  </metadata>
  <g
     inkscape:label="Layer 1"
     inkscape:groupmode="layer"
     id="layer1"
     transform="translate(-18.19238,7.9545576)">
    <g
       id="g6845"
       transform="translate(71.123686)">
      <path
         inkscape:connector-curvature="0"
         id="path6841"
         d="m 65.011905,140.51785 c 0,0 17.197917,-17.76487 17.764879,-18.8988 0.566965,-1.13393 12.473215,-24.757445 12.473215,-24.757445 l 3.590774,-21.922618 2.078867,-10.772322 10.77232,18.331846 14.3631,21.733629 25.3244,28.5372 9.44941,31.56101 -94.872027,-4.91369 z"
         style="fill:#dc391b;fill-opacity:1;stroke:none;stroke-width:0.26458332px;stroke-linecap:butt;stroke-linejoin:miter;stroke-opacity:1" />
      <circle
         r="82.776787"
         cy="219.1369"
         cx="104.6994"
         id="path6276"
         style="fill:#dc391b;fill-opacity:1;stroke:none;stroke-width:6.16901398;stroke-linecap:butt;stroke-linejoin:bevel;stroke-miterlimit:4;stroke-dasharray:none;stroke-opacity:1;paint-order:stroke markers fill" />
    </g>
    <path
       style="fill:#000000;stroke:none;stroke-width:0.26458332px;stroke-linecap:butt;stroke-linejoin:miter;stroke-opacity:1"
       d="m 126.68575,29.195935 c 0,0 6.91547,-12.273354 27.94779,-19.9342787 9.38755,-3.4172386 21.66272,-5.327444 35.06734,-2.7216157 0,3.9e-6 10e-6,2.8e-6 10e-6,2.8e-6 9.37155,1.844019 18.68391,5.7376736 27.79431,11.3191756 8.3663,5.110517 16.09441,11.158559 23.99269,17.833451 13.97349,11.679439 28.85099,25.608487 45.43566,32.367597 11.86458,4.982534 25.16933,6.869374 38.02371,5.316728 10.74179,-1.289126 21.16891,-4.978655 30.27876,-10.549209 1.78094,-1.089021 3.51857,-2.254153 5.20439,-3.493447 10.29209,-7.553502 18.73025,-17.926467 24.02176,-29.711286 5.35581,-11.904232 7.48553,-25.2181655 6.25555,-38.0110966 -1.28046,-13.4103864 -6.22453,-26.1562854 -13.61653,-36.6033864 -8.14397,-11.522787 -19.11169,-20.118542 -30.57397,-25.426883 0,-10e-7 -1e-5,-2e-6 -1e-5,-2e-6 -13.90596,-6.446373 -28.16035,-7.998795 -40.03808,-6.947493 -26.19252,2.313091 -39.14282,14.28696 -39.14282,14.28696 0,0 11.39637,-13.547686 38.57506,-18.471269 12.34492,-2.23397 27.77221,-1.971706 43.59874,3.916842 0,5e-6 10e-6,6e-6 10e-6,6e-6 13.06272,4.865274 26.03196,13.515465 36.19531,26.100033 9.22121,11.428778 15.81398,25.780122 18.09404,41.5477052 2.16807,15.0521389 0.31326,30.9025018 -5.73202,45.4721778 -5.9932,14.418993 -15.88603,27.073442 -28.39797,36.359349 -2.04829,1.518118 -4.15822,2.939793 -6.32072,4.262641 -11.07469,6.774632 -23.69849,11.060191 -36.76641,12.351953 -15.64396,1.536426 -31.39631,-1.267676 -45.29088,-7.79189 -19.24364,-9.249082 -34.09548,-24.550559 -46.97112,-37.000845 -7.32834,-7.010197 -14.18398,-13.22595 -21.62119,-18.531221 -8.07662,-5.745802 -16.16104,-9.979516 -24.48095,-12.306162 0,0 -2e-5,0 -2e-5,0 -11.88083,-3.3554274 -23.37863,-2.678886 -32.55472,-0.281487 -20.60387,5.378426 -28.97772,16.64695 -28.97772,16.64695 z"
       id="path6191"
       inkscape:connector-curvature="0"
       inkscape:path-effect="#path-effect6193;#path-effect6201"
       inkscape:original-d="m 126.68575,29.195934 c 6.3523,-23.0320214 39.20659,-17.588409 62.2738,-19.5106775 37.1526,-3.096049 73.50139,80.9141545 95.14796,64.6792265 18.89757,-14.173176 -34.51109,-125.616744 -16.77117,-137.443354"
       transform="rotate(90,138.42468,39.763369)"
       sodipodi:nodetypes="cssc" />
    <path
       style="fill:#000000;stroke:none;stroke-width:0.26458332px;stroke-linecap:butt;stroke-linejoin:miter;stroke-opacity:1"
       d="m 102.89877,-59.003008 c 0,0 2.47617,3.736107 8.03831,8.884397 5.5149,5.104557 14.35721,11.534304 26.28673,14.999101 0,0 1e-5,10e-7 1e-5,3e-6 11.75003,3.423177 26.09912,3.704593 39.73924,-1.402234 14.3051,-5.147673 26.10598,-15.749169 39.77264,-26.840772 3.20014,-2.697529 6.48369,-5.378505 9.90434,-7.966261 10.57257,-7.998234 22.55672,-15.174546 36.38921,-18.616007 22.24781,-5.206194 43.68129,1.847183 57.67831,13.589983 13.58567,11.453038 19.22479,25.903994 21.2788,35.660046 2.10379,9.992474 1.18772,15.902279 1.18772,15.902279 0,0 -0.2906,-5.993318 -3.88107,-15.099493 -3.54504,-8.990959 -10.84584,-21.135108 -23.81642,-29.432219 -13.21428,-8.504664 -31.73552,-12.104191 -48.77762,-6.84557 -10.88539,3.142961 -20.69201,9.849263 -30.59204,17.347694 -3.21088,2.431967 -6.403,4.926046 -9.69305,7.461651 -13.62545,10.916366 -28.18772,21.651445 -45.77032,26.537272 -17.05555,4.550896 -33.45676,1.957829 -45.9014,-3.647397 0,-2e-6 -1e-5,-4e-6 -1e-5,-6e-6 -12.58379,-5.679082 -20.7631,-14.084294 -25.41965,-20.18377 -4.74241,-6.211939 -6.42373,-10.348697 -6.42373,-10.348697 z"
       id="path6227"
       inkscape:connector-curvature="0"
       inkscape:path-effect="#path-effect6229;#path-effect6237"
       inkscape:original-d="m 102.89877,-59.003009 c -1.50978,11.615084 69.90344,19.328907 75.90454,28.330569 29.62845,44.442671 59.03641,-32.795675 86.0608,-52.384828 18.02609,-13.066563 67.94833,43.758478 78.30997,58.264757"
       sodipodi:nodetypes="cssc"
       transform="rotate(90,128.86675,18.013421)" />
    <path
       style="fill:#000000;stroke:none;stroke-width:0.26458332px;stroke-linecap:butt;stroke-linejoin:miter;stroke-opacity:1"
       d="m 156.19341,-68.452413 c 0,0 8.8827,6.891861 24.28307,7.886585 0,-2e-6 1e-5,0 1e-5,0 12.12082,0.875542 23.52905,-2.598394 38.92584,-8.329242 0,-2e-6 1e-5,-3e-6 1e-5,-3e-6 11.25065,-4.370035 23.42489,-9.525782 36.86358,-11.756296 1.61887,-0.268695 3.26194,-0.495939 4.92811,-0.675088 19.53675,-1.93955 38.22559,3.897302 52.37562,13.894436 12.78308,9.048038 20.31363,20.239877 24.45753,28.679624 4.1416,8.435075 5.14694,13.959982 5.14694,13.959982 0,0 -2.50651,-5.048455 -8.20346,-12.006792 -5.76746,-7.044467 -14.62924,-15.461671 -26.90562,-21.4826 -13.49406,-6.634875 -29.45967,-9.484063 -45.20049,-7.607462 -1.36679,0.149062 -2.73139,0.336491 -4.09533,0.555276 -11.23197,1.801685 -23.20979,5.922917 -35.39876,8.974883 0,0 -1e-5,0 -1e-5,0 -16.49662,4.374485 -31.09569,5.409526 -43.97246,1.90744 0,0 -1e-5,-3e-6 -1e-5,-3e-6 -16.71957,-4.66284 -23.20457,-14.00074 -23.20457,-14.00074 z"
       id="path6227-5"
       inkscape:connector-curvature="0"
       inkscape:path-effect="#path-effect6229;#path-effect6237"
       inkscape:original-d="m 156.19341,-68.452414 c -1.50978,11.615084 17.74273,1.942002 23.74383,10.943664 29.62845,44.442671 55.06766,3.49004 82.09205,-16.099113 18.02609,-13.066563 70.78315,34.309073 81.14479,48.815352"
       sodipodi:nodetypes="cssc"
       transform="rotate(90,132.05097,-14.849334)" />
  </g>
</svg>
